<mxfile host="app.diagrams.net" modified="2021-09-30T20:07:06.434Z" agent="5.0 (Macintosh; Intel Mac OS X 10_15_7) AppleWebKit/605.1.15 (KHTML, like Gecko) Version/15.0 Safari/605.1.15" etag="Wk675XryQlsTi12c0FB1" version="15.3.7" type="github">
  <diagram id="R2lEEEUBdFMjLlhIrx00" name="Page-1">
    <mxGraphModel dx="1558" dy="1128" grid="1" gridSize="10" guides="1" tooltips="1" connect="1" arrows="1" fold="1" page="1" pageScale="1" pageWidth="850" pageHeight="1100" math="0" shadow="0" extFonts="Permanent Marker^https://fonts.googleapis.com/css?family=Permanent+Marker">
      <root>
        <mxCell id="0" />
        <mxCell id="1" parent="0" />
        <mxCell id="WSD7EVR48k97SIQOQuv5-4" style="edgeStyle=orthogonalEdgeStyle;rounded=0;orthogonalLoop=1;jettySize=auto;html=1;" edge="1" parent="1" source="WSD7EVR48k97SIQOQuv5-1" target="WSD7EVR48k97SIQOQuv5-2">
          <mxGeometry relative="1" as="geometry" />
        </mxCell>
        <mxCell id="WSD7EVR48k97SIQOQuv5-1" value="Project" style="sketch=0;pointerEvents=1;shadow=0;dashed=0;html=1;strokeColor=none;fillColor=#434445;aspect=fixed;labelPosition=center;verticalLabelPosition=bottom;verticalAlign=top;align=center;outlineConnect=0;shape=mxgraph.vvd.folder;" vertex="1" parent="1">
          <mxGeometry x="40" y="40" width="50" height="38" as="geometry" />
        </mxCell>
        <mxCell id="WSD7EVR48k97SIQOQuv5-6" style="edgeStyle=orthogonalEdgeStyle;rounded=0;orthogonalLoop=1;jettySize=auto;html=1;" edge="1" parent="1" source="WSD7EVR48k97SIQOQuv5-2" target="WSD7EVR48k97SIQOQuv5-5">
          <mxGeometry relative="1" as="geometry" />
        </mxCell>
        <mxCell id="WSD7EVR48k97SIQOQuv5-2" value="config" style="sketch=0;pointerEvents=1;shadow=0;dashed=0;html=1;strokeColor=none;fillColor=#434445;aspect=fixed;labelPosition=center;verticalLabelPosition=bottom;verticalAlign=top;align=center;outlineConnect=0;shape=mxgraph.vvd.folder;" vertex="1" parent="1">
          <mxGeometry x="190" y="40" width="50" height="38" as="geometry" />
        </mxCell>
        <mxCell id="WSD7EVR48k97SIQOQuv5-15" style="edgeStyle=orthogonalEdgeStyle;rounded=0;orthogonalLoop=1;jettySize=auto;html=1;" edge="1" parent="1" source="WSD7EVR48k97SIQOQuv5-3" target="WSD7EVR48k97SIQOQuv5-14">
          <mxGeometry relative="1" as="geometry" />
        </mxCell>
        <mxCell id="WSD7EVR48k97SIQOQuv5-3" value="data" style="sketch=0;pointerEvents=1;shadow=0;dashed=0;html=1;strokeColor=none;fillColor=#434445;aspect=fixed;labelPosition=center;verticalLabelPosition=bottom;verticalAlign=top;align=center;outlineConnect=0;shape=mxgraph.vvd.folder;" vertex="1" parent="1">
          <mxGeometry x="190" y="122" width="50" height="38" as="geometry" />
        </mxCell>
        <mxCell id="WSD7EVR48k97SIQOQuv5-5" value="" style="sketch=0;pointerEvents=1;shadow=0;dashed=0;html=1;strokeColor=none;fillColor=#434445;aspect=fixed;labelPosition=center;verticalLabelPosition=bottom;verticalAlign=top;align=center;outlineConnect=0;shape=mxgraph.vvd.recovery_plan;" vertex="1" parent="1">
          <mxGeometry x="340" y="40" width="26.28" height="36" as="geometry" />
        </mxCell>
        <mxCell id="WSD7EVR48k97SIQOQuv5-7" value="generic_33v_300s_28d.txt" style="text;html=1;strokeColor=none;fillColor=none;align=center;verticalAlign=middle;whiteSpace=wrap;rounded=0;" vertex="1" parent="1">
          <mxGeometry x="333.14" y="76" width="40" height="20" as="geometry" />
        </mxCell>
        <mxCell id="WSD7EVR48k97SIQOQuv5-8" value="bootstrap.min.css" style="text;html=1;strokeColor=none;fillColor=none;align=center;verticalAlign=middle;whiteSpace=wrap;rounded=0;" vertex="1" parent="1">
          <mxGeometry x="333.14" y="158" width="40" height="20" as="geometry" />
        </mxCell>
        <mxCell id="WSD7EVR48k97SIQOQuv5-14" value="" style="sketch=0;pointerEvents=1;shadow=0;dashed=0;html=1;strokeColor=none;fillColor=#434445;aspect=fixed;labelPosition=center;verticalLabelPosition=bottom;verticalAlign=top;align=center;outlineConnect=0;shape=mxgraph.vvd.recovery_plan;" vertex="1" parent="1">
          <mxGeometry x="340" y="122" width="26.28" height="36" as="geometry" />
        </mxCell>
        <mxCell id="WSD7EVR48k97SIQOQuv5-16" value="" style="sketch=0;pointerEvents=1;shadow=0;dashed=0;html=1;strokeColor=none;fillColor=#434445;aspect=fixed;labelPosition=center;verticalLabelPosition=bottom;verticalAlign=top;align=center;outlineConnect=0;shape=mxgraph.vvd.recovery_plan;" vertex="1" parent="1">
          <mxGeometry x="340" y="180" width="26.28" height="36" as="geometry" />
        </mxCell>
        <mxCell id="WSD7EVR48k97SIQOQuv5-17" value="" style="sketch=0;pointerEvents=1;shadow=0;dashed=0;html=1;strokeColor=none;fillColor=#434445;aspect=fixed;labelPosition=center;verticalLabelPosition=bottom;verticalAlign=top;align=center;outlineConnect=0;shape=mxgraph.vvd.recovery_plan;" vertex="1" parent="1">
          <mxGeometry x="340" y="240" width="26.28" height="36" as="geometry" />
        </mxCell>
        <mxCell id="WSD7EVR48k97SIQOQuv5-18" value="bootstrap.min.js" style="text;html=1;strokeColor=none;fillColor=none;align=center;verticalAlign=middle;whiteSpace=wrap;rounded=0;" vertex="1" parent="1">
          <mxGeometry x="333.14" y="216" width="40" height="20" as="geometry" />
        </mxCell>
        <mxCell id="WSD7EVR48k97SIQOQuv5-19" value="index.html" style="text;html=1;strokeColor=none;fillColor=none;align=center;verticalAlign=middle;whiteSpace=wrap;rounded=0;" vertex="1" parent="1">
          <mxGeometry x="333.14" y="276" width="40" height="20" as="geometry" />
        </mxCell>
        <mxCell id="WSD7EVR48k97SIQOQuv5-20" value="" style="sketch=0;pointerEvents=1;shadow=0;dashed=0;html=1;strokeColor=none;fillColor=#434445;aspect=fixed;labelPosition=center;verticalLabelPosition=bottom;verticalAlign=top;align=center;outlineConnect=0;shape=mxgraph.vvd.recovery_plan;" vertex="1" parent="1">
          <mxGeometry x="340" y="300" width="26.28" height="36" as="geometry" />
        </mxCell>
        <mxCell id="WSD7EVR48k97SIQOQuv5-21" value="jQuery.min.css" style="text;html=1;strokeColor=none;fillColor=none;align=center;verticalAlign=middle;whiteSpace=wrap;rounded=0;" vertex="1" parent="1">
          <mxGeometry x="333.14" y="336" width="40" height="20" as="geometry" />
        </mxCell>
        <mxCell id="WSD7EVR48k97SIQOQuv5-34" style="edgeStyle=orthogonalEdgeStyle;rounded=0;orthogonalLoop=1;jettySize=auto;html=1;" edge="1" parent="1" source="WSD7EVR48k97SIQOQuv5-22" target="WSD7EVR48k97SIQOQuv5-23">
          <mxGeometry relative="1" as="geometry" />
        </mxCell>
        <mxCell id="WSD7EVR48k97SIQOQuv5-22" value="lib" style="sketch=0;pointerEvents=1;shadow=0;dashed=0;html=1;strokeColor=none;fillColor=#434445;aspect=fixed;labelPosition=center;verticalLabelPosition=bottom;verticalAlign=top;align=center;outlineConnect=0;shape=mxgraph.vvd.folder;" vertex="1" parent="1">
          <mxGeometry x="190" y="380" width="50" height="38" as="geometry" />
        </mxCell>
        <mxCell id="WSD7EVR48k97SIQOQuv5-23" value="WeatherStat_BlynkApp" style="sketch=0;pointerEvents=1;shadow=0;dashed=0;html=1;strokeColor=none;fillColor=#434445;aspect=fixed;labelPosition=center;verticalLabelPosition=bottom;verticalAlign=top;align=center;outlineConnect=0;shape=mxgraph.vvd.folder;" vertex="1" parent="1">
          <mxGeometry x="328.14" y="380" width="50" height="38" as="geometry" />
        </mxCell>
        <mxCell id="WSD7EVR48k97SIQOQuv5-24" value="WheaterStat_CO2Sensor" style="sketch=0;pointerEvents=1;shadow=0;dashed=0;html=1;strokeColor=none;fillColor=#434445;aspect=fixed;labelPosition=center;verticalLabelPosition=bottom;verticalAlign=top;align=center;outlineConnect=0;shape=mxgraph.vvd.folder;" vertex="1" parent="1">
          <mxGeometry x="328.14" y="470" width="50" height="38" as="geometry" />
        </mxCell>
        <mxCell id="WSD7EVR48k97SIQOQuv5-25" value="WheaterStat_Memory" style="sketch=0;pointerEvents=1;shadow=0;dashed=0;html=1;strokeColor=none;fillColor=#434445;aspect=fixed;labelPosition=center;verticalLabelPosition=bottom;verticalAlign=top;align=center;outlineConnect=0;shape=mxgraph.vvd.folder;" vertex="1" parent="1">
          <mxGeometry x="328.14" y="570" width="50" height="38" as="geometry" />
        </mxCell>
        <mxCell id="WSD7EVR48k97SIQOQuv5-26" value="WheaterStat_Messages" style="sketch=0;pointerEvents=1;shadow=0;dashed=0;html=1;strokeColor=none;fillColor=#434445;aspect=fixed;labelPosition=center;verticalLabelPosition=bottom;verticalAlign=top;align=center;outlineConnect=0;shape=mxgraph.vvd.folder;" vertex="1" parent="1">
          <mxGeometry x="328.14" y="670" width="50" height="38" as="geometry" />
        </mxCell>
        <mxCell id="WSD7EVR48k97SIQOQuv5-27" value="WheaterStat_NTP" style="sketch=0;pointerEvents=1;shadow=0;dashed=0;html=1;strokeColor=none;fillColor=#434445;aspect=fixed;labelPosition=center;verticalLabelPosition=bottom;verticalAlign=top;align=center;outlineConnect=0;shape=mxgraph.vvd.folder;" vertex="1" parent="1">
          <mxGeometry x="328.14" y="760" width="50" height="38" as="geometry" />
        </mxCell>
        <mxCell id="WSD7EVR48k97SIQOQuv5-28" value="WheaterStat_Screen" style="sketch=0;pointerEvents=1;shadow=0;dashed=0;html=1;strokeColor=none;fillColor=#434445;aspect=fixed;labelPosition=center;verticalLabelPosition=bottom;verticalAlign=top;align=center;outlineConnect=0;shape=mxgraph.vvd.folder;" vertex="1" parent="1">
          <mxGeometry x="328.14" y="850" width="50" height="38" as="geometry" />
        </mxCell>
        <mxCell id="WSD7EVR48k97SIQOQuv5-29" value="WheaterStat_Zambretti" style="sketch=0;pointerEvents=1;shadow=0;dashed=0;html=1;strokeColor=none;fillColor=#434445;aspect=fixed;labelPosition=center;verticalLabelPosition=bottom;verticalAlign=top;align=center;outlineConnect=0;shape=mxgraph.vvd.folder;" vertex="1" parent="1">
          <mxGeometry x="328.14" y="930" width="50" height="38" as="geometry" />
        </mxCell>
        <mxCell id="WSD7EVR48k97SIQOQuv5-36" style="edgeStyle=orthogonalEdgeStyle;rounded=0;orthogonalLoop=1;jettySize=auto;html=1;" edge="1" parent="1" source="WSD7EVR48k97SIQOQuv5-37">
          <mxGeometry relative="1" as="geometry">
            <mxPoint x="328.1399999999999" y="1039" as="targetPoint" />
          </mxGeometry>
        </mxCell>
        <mxCell id="WSD7EVR48k97SIQOQuv5-37" value="src" style="sketch=0;pointerEvents=1;shadow=0;dashed=0;html=1;strokeColor=none;fillColor=#434445;aspect=fixed;labelPosition=center;verticalLabelPosition=bottom;verticalAlign=top;align=center;outlineConnect=0;shape=mxgraph.vvd.folder;" vertex="1" parent="1">
          <mxGeometry x="190" y="1020" width="50" height="38" as="geometry" />
        </mxCell>
        <mxCell id="WSD7EVR48k97SIQOQuv5-41" value="main.cpp" style="sketch=0;pointerEvents=1;shadow=0;dashed=0;html=1;strokeColor=none;fillColor=#434445;aspect=fixed;labelPosition=center;verticalLabelPosition=bottom;verticalAlign=top;align=center;outlineConnect=0;shape=mxgraph.vvd.recovery_plan;" vertex="1" parent="1">
          <mxGeometry x="328.14" y="1021" width="26.28" height="36" as="geometry" />
        </mxCell>
        <mxCell id="WSD7EVR48k97SIQOQuv5-47" value="" style="curved=1;endArrow=classic;html=1;" edge="1" parent="1">
          <mxGeometry width="50" height="50" relative="1" as="geometry">
            <mxPoint x="130" y="60" as="sourcePoint" />
            <mxPoint x="180" y="141" as="targetPoint" />
            <Array as="points">
              <mxPoint x="120" y="141" />
            </Array>
          </mxGeometry>
        </mxCell>
        <mxCell id="WSD7EVR48k97SIQOQuv5-48" value="" style="curved=1;endArrow=classic;html=1;" edge="1" parent="1">
          <mxGeometry width="50" height="50" relative="1" as="geometry">
            <mxPoint x="130" y="100" as="sourcePoint" />
            <mxPoint x="190" y="401" as="targetPoint" />
            <Array as="points">
              <mxPoint x="120" y="401" />
            </Array>
          </mxGeometry>
        </mxCell>
        <mxCell id="WSD7EVR48k97SIQOQuv5-49" value="" style="curved=1;endArrow=classic;html=1;" edge="1" parent="1">
          <mxGeometry width="50" height="50" relative="1" as="geometry">
            <mxPoint x="130" y="200" as="sourcePoint" />
            <mxPoint x="190" y="1041" as="targetPoint" />
            <Array as="points">
              <mxPoint x="120" y="1041" />
            </Array>
          </mxGeometry>
        </mxCell>
        <mxCell id="WSD7EVR48k97SIQOQuv5-50" value="" style="curved=1;endArrow=classic;html=1;" edge="1" parent="1">
          <mxGeometry width="50" height="50" relative="1" as="geometry">
            <mxPoint x="250" y="400" as="sourcePoint" />
            <mxPoint x="310" y="941" as="targetPoint" />
            <Array as="points">
              <mxPoint x="240" y="941" />
            </Array>
          </mxGeometry>
        </mxCell>
      </root>
    </mxGraphModel>
  </diagram>
</mxfile>
